<svg width="1024" height="1024" viewBox="0 0 1024 1024" fill="none" xmlns="http://www.w3.org/2000/svg">
  <defs>
    <linearGradient id="bg" x1="160" y1="96" x2="864" y2="928" gradientUnits="userSpaceOnUse">
      <stop offset="0" stop-color="#1D4ED8"/>
      <stop offset="0.48" stop-color="#0F766E"/>
      <stop offset="1" stop-color="#111827"/>
    </linearGradient>
    <radialGradient id="glow" cx="0" cy="0" r="1" gradientUnits="userSpaceOnUse" gradientTransform="translate(352 248) rotate(53.1) scale(665 741)">
      <stop stop-color="#67E8F9" stop-opacity="0.75"/>
      <stop offset="0.46" stop-color="#22D3EE" stop-opacity="0.18"/>
      <stop offset="1" stop-color="#000000" stop-opacity="0"/>
    </radialGradient>
    <linearGradient id="lens" x1="270" y1="244" x2="672" y2="646" gradientUnits="userSpaceOnUse">
      <stop stop-color="#F8FAFC" stop-opacity="0.96"/>
      <stop offset="1" stop-color="#CFFAFE" stop-opacity="0.88"/>
    </linearGradient>
    <linearGradient id="handle" x1="632" y1="642" x2="832" y2="842" gradientUnits="userSpaceOnUse">
      <stop stop-color="#ECFEFF"/>
      <stop offset="1" stop-color="#A7F3D0"/>
    </linearGradient>
    <filter id="shadow" x="92" y="92" width="840" height="840" filterUnits="userSpaceOnUse" color-interpolation-filters="sRGB">
      <feDropShadow dx="0" dy="24" stdDeviation="28" flood-color="#020617" flood-opacity="0.36"/>
    </filter>
    <filter id="softShadow" x="200" y="192" width="652" height="668" filterUnits="userSpaceOnUse" color-interpolation-filters="sRGB">
      <feDropShadow dx="0" dy="18" stdDeviation="18" flood-color="#020617" flood-opacity="0.32"/>
    </filter>
    <clipPath id="roundClip">
      <rect x="96" y="96" width="832" height="832" rx="206"/>
    </clipPath>
  </defs>

  <g filter="url(#shadow)">
    <rect x="96" y="96" width="832" height="832" rx="206" fill="url(#bg)"/>
    <rect x="96" y="96" width="832" height="832" rx="206" fill="url(#glow)"/>
  </g>

  <g clip-path="url(#roundClip)" opacity="0.34">
    <path d="M160 245H864" stroke="#E0F2FE" stroke-width="8" stroke-linecap="round"/>
    <path d="M160 374H864" stroke="#E0F2FE" stroke-width="8" stroke-linecap="round"/>
    <path d="M160 503H864" stroke="#E0F2FE" stroke-width="8" stroke-linecap="round"/>
    <path d="M160 632H864" stroke="#E0F2FE" stroke-width="8" stroke-linecap="round"/>
    <path d="M160 761H864" stroke="#E0F2FE" stroke-width="8" stroke-linecap="round"/>
    <path d="M245 160V864" stroke="#E0F2FE" stroke-width="8" stroke-linecap="round"/>
    <path d="M374 160V864" stroke="#E0F2FE" stroke-width="8" stroke-linecap="round"/>
    <path d="M503 160V864" stroke="#E0F2FE" stroke-width="8" stroke-linecap="round"/>
    <path d="M632 160V864" stroke="#E0F2FE" stroke-width="8" stroke-linecap="round"/>
    <path d="M761 160V864" stroke="#E0F2FE" stroke-width="8" stroke-linecap="round"/>
  </g>

  <g filter="url(#softShadow)">
    <path d="M604 608L824 828" stroke="url(#handle)" stroke-width="116" stroke-linecap="round"/>
    <path d="M604 608L824 828" stroke="#0F172A" stroke-opacity="0.18" stroke-width="78" stroke-linecap="round"/>

    <circle cx="456" cy="452" r="270" fill="#0B1220" fill-opacity="0.58"/>
    <circle cx="456" cy="452" r="248" fill="url(#lens)"/>
    <circle cx="456" cy="452" r="248" stroke="#FFFFFF" stroke-width="26"/>
    <circle cx="456" cy="452" r="202" fill="#0F172A" fill-opacity="0.86"/>
  </g>

  <g opacity="0.62">
    <path d="M328 324H584" stroke="#BAE6FD" stroke-width="10" stroke-linecap="round"/>
    <path d="M328 388H584" stroke="#BAE6FD" stroke-width="10" stroke-linecap="round"/>
    <path d="M328 452H584" stroke="#BAE6FD" stroke-width="10" stroke-linecap="round"/>
    <path d="M328 516H584" stroke="#BAE6FD" stroke-width="10" stroke-linecap="round"/>
    <path d="M328 580H584" stroke="#BAE6FD" stroke-width="10" stroke-linecap="round"/>
    <path d="M328 324V580" stroke="#BAE6FD" stroke-width="10" stroke-linecap="round"/>
    <path d="M392 324V580" stroke="#BAE6FD" stroke-width="10" stroke-linecap="round"/>
    <path d="M456 324V580" stroke="#BAE6FD" stroke-width="10" stroke-linecap="round"/>
    <path d="M520 324V580" stroke="#BAE6FD" stroke-width="10" stroke-linecap="round"/>
    <path d="M584 324V580" stroke="#BAE6FD" stroke-width="10" stroke-linecap="round"/>
  </g>

  <rect x="392" y="388" width="64" height="64" rx="10" fill="#22D3EE"/>
  <rect x="456" y="452" width="64" height="64" rx="10" fill="#34D399"/>
  <rect x="520" y="388" width="64" height="64" rx="10" fill="#F59E0B"/>
  <rect x="328" y="516" width="64" height="64" rx="10" fill="#60A5FA"/>
  <rect x="520" y="516" width="64" height="64" rx="10" fill="#A78BFA"/>

  <path d="M456 290V372" stroke="#ECFEFF" stroke-width="16" stroke-linecap="round"/>
  <path d="M456 532V614" stroke="#ECFEFF" stroke-width="16" stroke-linecap="round"/>
  <path d="M294 452H376" stroke="#ECFEFF" stroke-width="16" stroke-linecap="round"/>
  <path d="M536 452H618" stroke="#ECFEFF" stroke-width="16" stroke-linecap="round"/>
  <circle cx="456" cy="452" r="30" fill="#ECFEFF"/>
  <circle cx="456" cy="452" r="15" fill="#0F172A"/>

  <g opacity="0.95">
    <rect x="290" y="696" width="58" height="94" rx="18" fill="#93C5FD"/>
    <rect x="372" y="650" width="58" height="140" rx="18" fill="#22D3EE"/>
    <rect x="454" y="716" width="58" height="74" rx="18" fill="#34D399"/>
    <rect x="536" y="608" width="58" height="182" rx="18" fill="#A7F3D0"/>
    <path d="M276 816H610" stroke="#ECFEFF" stroke-width="18" stroke-linecap="round"/>
  </g>
</svg>
